<?xml version="1.0" ?><!DOCTYPE svg  PUBLIC '-//W3C//DTD SVG 1.0//EN'  'http://www.w3.org/TR/2001/REC-SVG-20010904/DTD/svg10.dtd'><svg enable-background="new 0 0 512 512" id="Layer_1" version="1.0" viewBox="0 0 512 512" xml:space="preserve" xmlns="http://www.w3.org/2000/svg" xmlns:xlink="http://www.w3.org/1999/xlink"><g><g><g><g><path d="M44.5,64.9C44.5,64.9,44.5,64.9,44.5,64.9c0-4.1-3.4-7.5-7.5-7.5s-7.5,3.4-7.5,7.5c0,0,0,0,0,0c0,4.1,3.4,7.5,7.5,7.5      S44.5,69,44.5,64.9L44.5,64.9z"/><path d="M402.6,64.9C402.6,64.9,402.6,64.9,402.6,64.9c0-4.1-3.4-7.5-7.5-7.5s-7.5,3.4-7.5,7.5c0,0,0,0,0,0      c0,4.1,3.4,7.5,7.5,7.5S402.6,69,402.6,64.9L402.6,64.9z"/></g></g><g><path d="M368.7,161.9h-6.9c-14.6,0-26.4-11.8-26.4-26.4c0,14.6-11.8,26.4-26.4,26.4h-6.9     c-14.6,0-26.4-11.8-26.4-26.4c0,14.6-11.8,26.4-26.4,26.4h-6.9c-14.6,0-26.4-11.8-26.4-26.4c0,14.6-11.8,26.4-26.4,26.4h-6.9     c-14.6,0-26.4-11.8-26.4-26.4c0,14.6-11.8,26.4-26.4,26.4h-6.9c-14.6,0-26.4-11.8-26.4-26.4c0,14.6-11.8,26.4-26.4,26.4h-6.9     c-14.6,0-26.4-11.8-26.4-26.4v255.4c0,3.4,2.8,6.2,6.2,6.2h187.9V266.6c0-35.8,29-64.7,64.7-64.7c4.5,0,8.9,0.5,13.2,1.4     c4.1,0.8,8,2.1,11.8,3.7c18.3-18.9,44-31.2,74.1-31.2h0v-40.2C395.1,150.1,383.3,161.9,368.7,161.9z M203,334.5     c0,3.8-3.1,6.9-6.9,6.9H70.3c-3.8,0-6.9-3.1-6.9-6.9V208.7c0-3.8,3.1-6.9,6.9-6.9h125.8c3.8,0,6.9,3.1,6.9,6.9V334.5z" fill="#F7941E"/><g><path d="M195.5,334.5c0.1-0.8,1.2-0.6-0.2-0.6c-1.3,0-2.6,0-3.9,0c-4.9,0-9.8,0-14.7,0c-15.3,0-30.6,0-45.9,0      c-14.8,0-29.7,0-44.5,0c-4.3,0-8.7,0-13,0c-0.9,0-1.7,0-2.6,0c-0.5,0,0.4,0.9,0.4,0.4c0-24.4,0-48.7,0-73.1      c0-13.9,0-27.8,0-41.7c0-3.3,0-6.6,0-9.9c0-1.3,0.2-0.3-0.6-0.2c0.6-0.1,1.1,0,1.7,0c26.5,0,52.9,0,79.4,0c12.7,0,25.4,0,38.2,0      c2.2,0,4.3,0,6.5,0c-0.7,0-0.6-1.2-0.6,0c0,1.2,0,2.4,0,3.7C195.5,253.5,195.5,294,195.5,334.5c0,9.7,15,9.7,15,0      c0-22.8,0-45.6,0-68.4c0-14.5,0-29,0-43.5c0-9.3,2.1-21.9-8.2-26.8c-3.4-1.6-6.9-1.5-10.5-1.5c-4.8,0-9.6,0-14.4,0      c-15.2,0-30.4,0-45.7,0c-14.9,0-29.9,0-44.8,0c-7.5,0-20.4-2.1-26.3,3.8c-6.6,6.6-4.6,17.9-4.6,26.4c0,14.8,0,29.7,0,44.5      c0,15.3,0,30.6,0,45.9c0,7.5-1.3,16.5,0.7,23.9c3.3,12,17.4,10,26.9,10c14.4,0,28.8,0,43.2,0c23.1,0,46.2,0,69.4,0      c8.3,0,13.7-6.6,14.4-14.4C211.3,324.8,196.3,324.9,195.5,334.5z"/><path d="M368.7,154.4c-5,0-10.2,0.5-14.9-1.7c-6.7-3.2-10.7-9.8-10.9-17.1c-0.3-9.7-14.7-9.7-15,0c-0.7,25.6-44,25.6-44.7,0      c-0.3-9.7-14.7-9.7-15,0c-0.7,25.6-44,25.6-44.7,0c-0.3-9.7-14.7-9.7-15,0c-0.7,25.6-44,25.6-44.7,0c-0.3-9.7-14.7-9.7-15,0      c-0.7,25.6-44,25.6-44.7,0c-0.3-9.7-14.7-9.7-15,0c-0.7,25.6-44,25.6-44.7,0c-0.3-9.7-15-9.7-15,0c0,45.2,0,90.4,0,135.7      c0,29.5,0,58.9,0,88.4c0,8.6,0,17.1,0,25.7c0,1.7,0,3.5,0,5.2c0,7.6,6,14.1,13.7,14.1c50.4,0,100.7,0,151.1,0      c12.3,0,24.5,0,36.8,0c4.1,0,7.5-3.4,7.5-7.5c0-22.4,0-44.8,0-67.3c0-15,0-30.1,0-45.1c0-7.9-0.4-15.9,0.2-23.8      c1.2-16.4,10.8-31.9,24-41.2c16.5-11.6,37.4-13.1,56-5.7c2.4,1,5.6-0.2,7.3-1.9c18.2-18.6,42.8-29,68.9-29      c4.1,0,7.5-3.4,7.5-7.5c0-13.4,0-26.8,0-40.2c0-9.7-14.7-9.7-15,0C387.3,146.1,379.2,154.1,368.7,154.4c-9.7,0.3-9.7,15.3,0,15      c18.8-0.5,33.4-15.1,33.9-33.9c-5,0-10,0-15,0c0,13.4,0,26.8,0,40.2c2.5-2.5,5-5,7.5-7.5c-29.9,0-58.5,12-79.5,33.3      c2.4-0.6,4.9-1.3,7.3-1.9c-24.1-9.7-52-5.5-72.2,10.7c-17,13.6-27,34.6-27,56.4c0,23.4,0,46.8,0,70.2c0,20.1,0,40.2,0,60.3      c2.5-2.5,5-5,7.5-7.5c-49.8,0-99.7,0-149.5,0c-10.6,0-21.1,0-31.7,0c-2.1,0-4.2,0-6.4,0c0.3,0,0.9,2.4,0.9,0      c0-18.2,0-36.4,0-54.5c0-59.5,0-118.9,0-178.4c0-7.1,0-14.1,0-21.2c-5,0-10,0-15,0c0.3,10.1,4.5,19.6,12.4,26.1      c7.1,5.9,15.5,7.8,24.5,7.8c8.7,0,16.8-1.3,23.9-6.6c8.8-6.5,13.6-16.4,13.9-27.3c-5,0-10,0-15,0c0.3,10.1,4.5,19.6,12.4,26.1      c7.1,5.9,15.5,7.8,24.5,7.8c8.7,0,16.8-1.3,23.9-6.6c8.8-6.5,13.6-16.4,13.9-27.3c-5,0-10,0-15,0c0.3,10.1,4.5,19.6,12.4,26.1      c7.1,5.9,15.5,7.8,24.5,7.8c8.7,0,16.8-1.3,23.9-6.6c8.8-6.5,13.6-16.4,13.9-27.3c-5,0-10,0-15,0c0.3,10.1,4.5,19.6,12.4,26.1      c7.1,5.9,15.5,7.8,24.5,7.8c8.7,0,16.8-1.3,23.9-6.6c8.8-6.5,13.6-16.4,13.9-27.3c-5,0-10,0-15,0c0.3,10.1,4.5,19.6,12.4,26.1      c7.1,5.9,15.5,7.8,24.5,7.8c8.7,0,16.8-1.3,23.9-6.6c8.8-6.5,13.6-16.4,13.9-27.3c-5,0-10,0-15,0c0.3,12,6.1,22.2,16,28.8      c7.5,5,16.2,5.1,24.8,5.1C378.4,169.4,378.4,154.4,368.7,154.4z"/></g></g><g><path d="M338.9,397.1H231.1V266.6c0-35.8,29-64.7,64.7-64.7c4.5,0,8.9,0.5,13.2,1.4c4.1,0.8,8,2.1,11.8,3.7     c-30.9,32-40.7,83-15,125.8L338.9,397.1z" fill="#EF4136"/><g><path d="M338.9,389.6c-35.9,0-71.8,0-107.7,0c2.5,2.5,5,5,7.5,7.5c0-22.4,0-44.8,0-67.3c0-15,0-30.1,0-45.1      c0-7.9-0.4-15.9,0.2-23.8c1.2-16.4,10.8-31.9,24-41.2c16.5-11.6,37.4-13.1,56-5.7c-1.1-4.2-2.2-8.4-3.3-12.5      c-17.6,18.5-28.3,41.8-31.3,67.1c-1.5,12.7-0.3,25.7,2.7,38.1c2.6,10.8,7.6,20.3,12.6,30.2c10.9,21.3,21.8,42.5,32.6,63.8      c0,0.1,0.1,0.2,0.1,0.3c4.4,8.6,17.4,1,13-7.6c-10.6-20.8-21.2-41.5-31.9-62.3c-3.3-6.4-6.8-12.6-9.3-19.4      c-4.1-11.5-5.8-23.5-5.4-35.6c0.7-23.8,11.1-46.8,27.5-63.9c4.2-4.4,1.8-10.5-3.3-12.5c-24.1-9.7-52-5.5-72.2,10.7      c-17,13.6-27,34.6-27,56.4c0,23.4,0,46.8,0,70.2c0,20.1,0,40.2,0,60.3c0,4.1,3.4,7.5,7.5,7.5c35.9,0,71.8,0,107.7,0      C348.5,404.6,348.5,389.6,338.9,389.6z"/></g></g><g><path d="M419,39.5v13.8c0,6.5-5.2,11.7-11.7,11.7H24.8c-6.4,0-11.7-5.2-11.7-11.7V39.5c0-6.4,5.2-11.7,11.7-11.7     h382.5C413.8,27.8,419,33.1,419,39.5z" fill="#00AEEF"/><g><path d="M411.5,39.5c0,2.8,0,5.6,0,8.3c0,2.7,0.7,6.2-1.2,8.4c-1.2,1.4-2.8,1.2-4.5,1.2c-4.9,0-9.7,0-14.6,0      c-21.8,0-43.7,0-65.5,0c-63.7,0-127.5,0-191.2,0c-36.6,0-73.1,0-109.7,0c-6.2,0-4.2-10.6-4.2-14.4c0-3.5-0.2-7.7,4.5-7.7      c3.8,0,7.5,0,11.3,0c20.3,0,40.6,0,60.9,0c63.4,0,126.7,0,190.1,0c39.7,0,79.5,0,119.2,0C409.2,35.3,411.3,36.7,411.5,39.5      c0.6,9.6,15.6,9.7,15,0c-0.6-10.5-8.4-19.2-19.3-19.2c-1,0-2,0-2.9,0c-5.7,0-11.5,0-17.2,0c-23,0-46,0-69,0      c-63.9,0-127.8,0-191.7,0c-24.7,0-49.4,0-74.1,0c-7,0-14,0-21,0c-5.5,0-10-0.1-15.3,2.2C5.9,26.8,5.6,37.8,5.6,46.9      c0,9.7,1.2,19.5,11.5,23.9c4.7,2,9.4,1.7,14.4,1.7c18.1,0,36.1,0,54.2,0c62.5,0,125,0,187.6,0c43.7,0,87.5,0,131.2,0      c4.1,0,7.8-0.5,11.8-2.2c12.1-5.1,10.3-20.2,10.3-30.7C426.5,29.8,411.5,29.8,411.5,39.5z"/></g></g><g><path d="M96.7,65v70.6c0,14.6-11.8,26.4-26.4,26.4h-6.9c-14.6,0-26.4-11.8-26.4-26.4V65H96.7z" fill="#EF4136"/><g><path d="M89.2,65c0,23.3,0,46.6,0,69.9c0,7.7-4.2,15.1-11.5,18.1c-6.6,2.7-17.2,2.4-23.4-0.9c-12.1-6.4-9.7-21.4-9.7-32.8      c0-18.1,0-36.2,0-54.3c-2.5,2.5-5,5-7.5,7.5c19.9,0,39.8,0,59.7,0c9.7,0,9.7-15,0-15c-19.9,0-39.8,0-59.7,0      c-4.1,0-7.5,3.4-7.5,7.5c0,23.3,0,46.6,0,69.9c0,9.5,3.6,18.3,10.4,25.1c7.7,7.7,17.9,9.5,28.3,9.5c20.3,0,36-14.7,36-35.3      c0-23,0-46.1,0-69.1C104.2,55.3,89.2,55.3,89.2,65z"/></g></g><g><path d="M156.4,65v70.6c0,14.6-11.8,26.4-26.4,26.4h-6.9c-14.6,0-26.4-11.8-26.4-26.4V65H156.4z" fill="#EF4136"/><g><path d="M148.9,65c0,23.3,0,46.6,0,69.9c0,7.7-4.2,15.1-11.5,18.1c-6.6,2.7-17.2,2.4-23.4-0.9c-12.1-6.4-9.7-21.4-9.7-32.8      c0-18.1,0-36.2,0-54.3c-2.5,2.5-5,5-7.5,7.5c19.9,0,39.8,0,59.7,0c9.7,0,9.7-15,0-15c-19.9,0-39.8,0-59.7,0      c-4.1,0-7.5,3.4-7.5,7.5c0,23.3,0,46.6,0,69.9c0,9.5,3.6,18.3,10.4,25.1c7.7,7.7,17.9,9.5,28.3,9.5c20.3,0,36-14.7,36-35.3      c0-23,0-46.1,0-69.1C163.9,55.3,148.9,55.3,148.9,65z"/></g></g><g><path d="M216,65v70.6c0,14.6-11.8,26.4-26.4,26.4h-6.9c-14.6,0-26.4-11.8-26.4-26.4V65H216z" fill="#EF4136"/><g><path d="M208.5,65c0,23.3,0,46.6,0,69.9c0,7.7-4.2,15.1-11.5,18.1c-6.6,2.7-17.2,2.4-23.4-0.9c-12.1-6.4-9.7-21.4-9.7-32.8      c0-18.1,0-36.2,0-54.3c-2.5,2.5-5,5-7.5,7.5c19.9,0,39.8,0,59.7,0c9.7,0,9.7-15,0-15c-19.9,0-39.8,0-59.7,0      c-4.1,0-7.5,3.4-7.5,7.5c0,23.3,0,46.6,0,69.9c0,9.5,3.6,18.3,10.4,25.1c7.7,7.7,17.9,9.5,28.3,9.5c20.3,0,36-14.7,36-35.3      c0-23,0-46.1,0-69.1C223.5,55.3,208.5,55.3,208.5,65z"/></g></g><g><path d="M275.7,65v70.6c0,14.6-11.8,26.4-26.4,26.4h-6.9c-14.6,0-26.4-11.8-26.4-26.4V65H275.7z" fill="#EF4136"/><g><path d="M268.2,65c0,23.3,0,46.6,0,69.9c0,7.7-4.2,15.1-11.5,18.1c-6.6,2.7-17.2,2.4-23.4-0.9c-12.1-6.4-9.7-21.4-9.7-32.8      c0-18.1,0-36.2,0-54.3c-2.5,2.5-5,5-7.5,7.5c19.9,0,39.8,0,59.7,0c9.7,0,9.7-15,0-15c-19.9,0-39.8,0-59.7,0      c-4.1,0-7.5,3.4-7.5,7.5c0,23.3,0,46.6,0,69.9c0,9.5,3.6,18.3,10.4,25.1c7.7,7.7,17.9,9.5,28.3,9.5c20.3,0,36-14.7,36-35.3      c0-23,0-46.1,0-69.1C283.2,55.3,268.2,55.3,268.2,65z"/></g></g><g><path d="M335.4,65v70.6c0,14.6-11.8,26.4-26.4,26.4h-6.9c-14.6,0-26.4-11.8-26.4-26.4V65H335.4z" fill="#EF4136"/><g><path d="M327.9,65c0,23.3,0,46.6,0,69.9c0,7.7-4.2,15.1-11.5,18.1c-6.6,2.7-17.2,2.4-23.4-0.9c-12.1-6.4-9.7-21.4-9.7-32.8      c0-18.1,0-36.2,0-54.3c-2.5,2.5-5,5-7.5,7.5c19.9,0,39.8,0,59.7,0c9.7,0,9.7-15,0-15c-19.9,0-39.8,0-59.7,0      c-4.1,0-7.5,3.4-7.5,7.5c0,23.3,0,46.6,0,69.9c0,9.5,3.6,18.3,10.4,25.1c7.7,7.7,17.9,9.5,28.3,9.5c20.3,0,36-14.7,36-35.3      c0-23,0-46.1,0-69.1C342.9,55.3,327.9,55.3,327.9,65z"/></g></g><g><path d="M395.1,65v70.6c0,14.6-11.8,26.4-26.4,26.4h-6.9c-14.6,0-26.4-11.8-26.4-26.4V65H395.1z" fill="#EF4136"/><g><path d="M387.6,65c0,23.3,0,46.6,0,69.9c0,7.7-4.2,15.1-11.5,18.1c-6.6,2.7-17.2,2.4-23.4-0.9c-12.1-6.4-9.7-21.4-9.7-32.8      c0-18.1,0-36.2,0-54.3c-2.5,2.5-5,5-7.5,7.5c19.9,0,39.8,0,59.7,0c9.7,0,9.7-15,0-15c-19.9,0-39.8,0-59.7,0      c-4.1,0-7.5,3.4-7.5,7.5c0,23.3,0,46.6,0,69.9c0,9.5,3.6,18.3,10.4,25.1c7.7,7.7,17.9,9.5,28.3,9.5c20.3,0,36-14.7,36-35.3      c0-23,0-46.1,0-69.1C402.6,55.3,387.6,55.3,387.6,65z"/></g></g><g><path d="M203,208.7v125.8c0,3.8-3.1,6.9-6.9,6.9H70.3c-3.8,0-6.9-3.1-6.9-6.9V208.7c0-3.8,3.1-6.9,6.9-6.9h125.8     C199.9,201.8,203,204.9,203,208.7z" fill="#726658"/><g><path d="M195.5,208.7c0,22.8,0,45.6,0,68.4c0,14.5,0,29,0,43.5c0,4,0,7.9,0,11.9c0,0.6,0,1.3,0,1.9c0-0.6,1.2-0.6,0-0.6      c-25.2,0-50.4,0-75.6,0c-13.5,0-27,0-40.5,0c-2.9,0-5.8,0-8.7,0c-0.8,0,0.3,0.3,0.3,0.5c0-0.8,0-1.6,0-2.5c0-27.1,0-54.3,0-81.4      c0-12.2,0-24.4,0-36.7c0-1.3,0-2.6,0-3.9c0-1.2,0.3-1.1-0.3-0.7c-0.5,0.3,0.4,0.1,0.9,0.1c1.4,0,2.9,0,4.3,0      c23.6,0,47.1,0,70.7,0c11.9,0,23.8,0,35.6,0c3.6,0,7.1,0,10.7,0c0.8,0,1.7,0,2.5,0C196.6,209.3,195.5,209.4,195.5,208.7      c0.9,9.6,15.9,9.6,15,0c-0.8-8.5-6.7-14.4-15.4-14.4c-3.4,0-6.9,0-10.3,0c-14,0-28.1,0-42.1,0c-24.1,0-48.1,0-72.2,0      c-8.1,0-14.5,6.7-14.5,14.7c0,2.9,0,5.8,0,8.7c0,13.5,0,27,0,40.5c0,25.2,0,50.4,0,75.6c0,8.1,6.1,15,14.4,15c2.3,0,4.6,0,6.9,0      c12.9,0,25.8,0,38.6,0c26.2,0,52.5,0,78.7,0c7.3,0,13.4-3.8,15.4-11.1c0.7-2.6,0.4-5.7,0.4-8.4c0-12.2,0-24.4,0-36.7      c0-27.1,0-54.3,0-81.4c0-0.9,0-1.7,0-2.6C210.5,199,195.5,199,195.5,208.7z"/></g></g></g><g><g><g><path d="M404.4,176.1c-3.1-0.3-6.2-0.4-9.4-0.4h0c-30.2,0-55.9,12.3-74.1,31.2c-30.9,32-40.7,83-15,125.8      l33,64.4l39.3,76.7c5.3,10.3,17.5,12.9,26.3,7.9c3-1.7,5.7-4.4,7.5-7.9l72.2-141.1C523.5,267,479.8,182.7,404.4,176.1z       M395,363.3c-46.2,0-83.6-37.4-83.6-83.6c0-46.2,37.4-83.6,83.6-83.6c46.2,0,83.6,37.4,83.6,83.6      C478.6,325.9,441.2,363.3,395,363.3z" fill="#00AEEF"/><g><path d="M395,355.8c-45.4-0.4-81.8-41.1-75.4-86.6c3-21.5,15.3-40.8,33.3-52.9c18.6-12.4,41.8-15.7,63.2-9.7       c35.9,10,59.5,46.9,54.3,83.6C465.2,327.6,432.6,355.5,395,355.8c-9.7,0.1-9.7,15.1,0,15c48-0.4,87.3-37.8,90.9-85.5       c3.5-47.5-33.1-90.1-79.8-96c-46.9-5.8-91.6,26.8-100.5,73.2c-9,46.9,20.9,93.5,67,105.4c7.3,1.9,14.9,2.7,22.5,2.8       C404.7,370.9,404.7,355.9,395,355.8z"/><path d="M404.4,168.6c-26.2-2.1-52.7,4.8-74.1,20.2c-20.5,14.7-35.2,36.2-42.3,60.4c-7.4,25.1-4.9,51.8,5.4,75.7       c4.8,11.2,11.4,22.1,16.9,32.9c9.5,18.5,18.9,36.9,28.4,55.4c7.1,13.9,14.2,27.7,21.3,41.6c4.4,8.5,8.1,18.5,13.9,26.2       c12.1,16.1,36.3,12.8,45.2-4.6c4-7.7,7.9-15.5,11.9-23.2c14.2-27.8,28.5-55.7,42.7-83.5c4.9-9.6,9.9-19.2,14.8-28.9       c5.8-11.3,11.7-22.3,14.8-34.8c10.2-40.5-4.9-84.8-36.5-111.7C449.1,179.3,427.4,170.8,404.4,168.6c-9.6-0.9-9.5,14.1,0,15       c40.6,3.8,73.9,33.8,84,72.9c5.1,19.6,3.3,40.1-4,58.8c-3.1,8-7.9,15.6-11.8,23.2c-22.4,43.8-44.9,87.7-67.3,131.5       c-4.5,8.7-16.4,8.6-20.8,0c-1.4-2.7-2.7-5.3-4.1-8c-6.8-13.3-13.7-26.7-20.5-40c-9.1-17.8-18.2-35.6-27.4-53.4       c-6.3-12.4-12.7-24.8-19-37.2c-3.3-6.5-7-12.8-9.5-19.8c-4.3-11.9-5.9-24.5-5.4-37.1c2.3-50.7,45.9-91.4,96.3-91.4       c3.1,0,6.3,0.2,9.4,0.4C414.1,184.4,414,169.4,404.4,168.6z"/></g></g></g><g><path d="M478.6,279.8c0,46.2-37.4,83.6-83.6,83.6c-46.2,0-83.6-37.4-83.6-83.6c0-46.2,37.4-83.6,83.6-83.6     C441.2,196.2,478.6,233.6,478.6,279.8z" fill="#2BB673"/><g><path d="M471.1,279.8c-0.4,45.4-41.1,81.8-86.6,75.4c-21.5-3-40.8-15.3-52.9-33.3c-12.4-18.6-15.7-41.8-9.7-63.2      c10-35.9,46.8-59.5,83.6-54.3C442.9,209.6,470.8,242.2,471.1,279.8c0.1,9.7,15.1,9.7,15,0c-0.4-48-37.8-87.3-85.5-90.9      c-47.5-3.5-90.1,33.1-95.9,79.8c-5.8,46.9,26.7,91.6,73.2,100.5c46.9,9,93.5-20.9,105.4-67c1.9-7.3,2.7-14.9,2.8-22.5      C486.2,270.1,471.2,270.1,471.1,279.8z"/></g></g></g></g></svg>